HIERARCHY
ROOT hips
{
	OFFSET -0.0367 2.9993 -0.2171
	CHANNELS 6 Xposition Yposition Zposition Xrotation Yrotation Zrotation
	JOINT LowerBack
	{
		OFFSET 0.0092 1.7759 0.0927
		CHANNELS 3 Xrotation Yrotation Zrotation
		JOINT spine
		{
			OFFSET 0.0092 1.7759 0.0927
			CHANNELS 3 Xrotation Yrotation Zrotation
			JOINT chest
			{
				OFFSET 0.0046 1.0002 0.0464
				CHANNELS 3 Xrotation Yrotation Zrotation
				JOINT neck
				{
					OFFSET 0.0046 1.0002 0.0464
					CHANNELS 3 Xrotation Yrotation Zrotation
					JOINT head
					{
						OFFSET 0.0092 1.5515 0.0927
						CHANNELS 6 Xposition Yposition Zposition Xrotation Yrotation Zrotation
						End Site
						{
							OFFSET 0.0000 1.5340 0.0000
						}
					}
				}
				JOINT shoulder.L
				{
					OFFSET 0.1994 0.7897 0.5752
					CHANNELS 6 Xposition Yposition Zposition Xrotation Yrotation Zrotation
					JOINT upper_arm.L
					{
						OFFSET 1.7702 -0.2046 -0.9506
						CHANNELS 6 Xposition Yposition Zposition Xrotation Yrotation Zrotation
						JOINT forearm.L
						{
							OFFSET 2.4710 -1.3550 -0.6180
							CHANNELS 3 Xrotation Yrotation Zrotation
							JOINT hand.L
							{
								OFFSET 2.1700 -1.4300 0.3930
								CHANNELS 3 Xrotation Yrotation Zrotation
								JOINT palm.01.L
								{
									OFFSET 0.2177 -0.3829 0.1295
									CHANNELS 6 Xposition Yposition Zposition Xrotation Yrotation Zrotation
									JOINT f_index.01.L
									{
										OFFSET 0.5322 -0.4414 0.0824
										CHANNELS 3 Xrotation Yrotation Zrotation
										JOINT f_index.02.L
										{
											OFFSET 0.3611 -0.2472 -0.1066
											CHANNELS 3 Xrotation Yrotation Zrotation
											JOINT f_index.03.L
											{
												OFFSET 0.2134 -0.1495 -0.1085
												CHANNELS 3 Xrotation Yrotation Zrotation
												End Site
												{
													OFFSET 0.1560 -0.0986 -0.1342
												}
											}
										}
									}
									JOINT thumb.01.L
									{
										OFFSET -0.0909 -0.0235 -0.2422
										CHANNELS 6 Xposition Yposition Zposition Xrotation Yrotation Zrotation
										JOINT thumb.02.L
										{
											OFFSET 0.1971 -0.3508 -0.1112
											CHANNELS 3 Xrotation Yrotation Zrotation
											JOINT thumb.03.L
											{
												OFFSET 0.2488 -0.2175 -0.0518
												CHANNELS 3 Xrotation Yrotation Zrotation
												End Site
												{
													OFFSET 0.1613 -0.1303 -0.0157
												}
											}
										}
									}
								}
								JOINT palm.02.L
								{
									OFFSET 0.3282 -0.2510 0.1228
									CHANNELS 6 Xposition Yposition Zposition Xrotation Yrotation Zrotation
									JOINT f_middle.01.L
									{
										OFFSET 0.5572 -0.3847 0.0804
										CHANNELS 3 Xrotation Yrotation Zrotation
										JOINT f_middle.02.L
										{
											OFFSET 0.3817 -0.2747 -0.1558
											CHANNELS 3 Xrotation Yrotation Zrotation
											JOINT f_middle.03.L
											{
												OFFSET 0.2171 -0.1659 -0.1704
												CHANNELS 3 Xrotation Yrotation Zrotation
												End Site
												{
													OFFSET 0.1411 -0.1058 -0.1429
												}
											}
										}
									}
								}
								JOINT palm.03.L
								{
									OFFSET 0.3923 -0.1140 0.0839
									CHANNELS 6 Xposition Yposition Zposition Xrotation Yrotation Zrotation
									JOINT f_ring.01.L
									{
										OFFSET 0.6180 -0.3147 0.0791
										CHANNELS 3 Xrotation Yrotation Zrotation
										JOINT f_ring.02.L
										{
											OFFSET 0.3309 -0.2340 -0.1913
											CHANNELS 3 Xrotation Yrotation Zrotation
											JOINT f_ring.03.L
											{
												OFFSET 0.2139 -0.1536 -0.1782
												CHANNELS 3 Xrotation Yrotation Zrotation
												End Site
												{
													OFFSET 0.0867 -0.0730 -0.1469
												}
											}
										}
									}
								}
								JOINT palm.04.L
								{
									OFFSET 0.4342 0.0245 0.0289
									CHANNELS 6 Xposition Yposition Zposition Xrotation Yrotation Zrotation
									JOINT f_pinky.01.L
									{
										OFFSET 0.6999 -0.2616 0.0363
										CHANNELS 3 Xrotation Yrotation Zrotation
										JOINT f_pinky.02.L
										{
											OFFSET 0.1852 -0.1281 -0.1643
											CHANNELS 3 Xrotation Yrotation Zrotation
											JOINT f_pinky.03.L
											{
												OFFSET 0.1382 -0.0980 -0.1495
												CHANNELS 3 Xrotation Yrotation Zrotation
												End Site
												{
													OFFSET 0.0724 -0.0610 -0.1166
												}
											}
										}
									}
								}
							}
						}
					}
				}
				JOINT shoulder.R
				{
					OFFSET -0.1666 0.7896 0.5770
					CHANNELS 6 Xposition Yposition Zposition Xrotation Yrotation Zrotation
					JOINT upper_arm.R
					{
						OFFSET -1.7697 -0.2054 -0.9514
						CHANNELS 6 Xposition Yposition Zposition Xrotation Yrotation Zrotation
						JOINT forearm.R
						{
							OFFSET -2.4710 -1.3550 -0.6180
							CHANNELS 3 Xrotation Yrotation Zrotation
							JOINT hand.R
							{
								OFFSET -2.1700 -1.4300 0.3930
								CHANNELS 3 Xrotation Yrotation Zrotation
								JOINT palm.01.R
								{
									OFFSET -0.2177 -0.3828 0.1299
									CHANNELS 6 Xposition Yposition Zposition Xrotation Yrotation Zrotation
									JOINT f_index.01.R
									{
										OFFSET -0.5321 -0.4414 0.0825
										CHANNELS 3 Xrotation Yrotation Zrotation
										JOINT f_index.02.R
										{
											OFFSET -0.3605 -0.2483 -0.1063
											CHANNELS 3 Xrotation Yrotation Zrotation
											JOINT f_index.03.R
											{
												OFFSET -0.2137 -0.1488 -0.1087
												CHANNELS 3 Xrotation Yrotation Zrotation
												End Site
												{
													OFFSET -0.1558 -0.0988 -0.1342
												}
											}
										}
									}
									JOINT thumb.01.R
									{
										OFFSET 0.0911 -0.0238 -0.2421
										CHANNELS 6 Xposition Yposition Zposition Xrotation Yrotation Zrotation
										JOINT thumb.02.R
										{
											OFFSET -0.1969 -0.3510 -0.1109
											CHANNELS 3 Xrotation Yrotation Zrotation
											JOINT thumb.03.R
											{
												OFFSET -0.2487 -0.2176 -0.0517
												CHANNELS 3 Xrotation Yrotation Zrotation
												End Site
												{
													OFFSET -0.1612 -0.1304 -0.0157
												}
											}
										}
									}
								}
								JOINT palm.02.R
								{
									OFFSET -0.3283 -0.2510 0.1229
									CHANNELS 6 Xposition Yposition Zposition Xrotation Yrotation Zrotation
									JOINT f_middle.01.R
									{
										OFFSET -0.5572 -0.3847 0.0804
										CHANNELS 3 Xrotation Yrotation Zrotation
										JOINT f_middle.02.R
										{
											OFFSET -0.3810 -0.2759 -0.1556
											CHANNELS 3 Xrotation Yrotation Zrotation
											JOINT f_middle.03.R
											{
												OFFSET -0.2173 -0.1653 -0.1705
												CHANNELS 3 Xrotation Yrotation Zrotation
												End Site
												{
													OFFSET -0.1410 -0.1061 -0.1429
												}
											}
										}
									}
								}
								JOINT palm.03.R
								{
									OFFSET -0.3919 -0.1149 0.0839
									CHANNELS 6 Xposition Yposition Zposition Xrotation Yrotation Zrotation
									JOINT f_ring.01.R
									{
										OFFSET -0.6184 -0.3139 0.0788
										CHANNELS 3 Xrotation Yrotation Zrotation
										JOINT f_ring.02.R
										{
											OFFSET -0.3307 -0.2344 -0.1913
											CHANNELS 3 Xrotation Yrotation Zrotation
											JOINT f_ring.03.R
											{
												OFFSET -0.2137 -0.1539 -0.1782
												CHANNELS 3 Xrotation Yrotation Zrotation
												End Site
												{
													OFFSET -0.0865 -0.0732 -0.1468
												}
											}
										}
									}
								}
								JOINT palm.04.R
								{
									OFFSET -0.4342 0.0244 0.0284
									CHANNELS 6 Xposition Yposition Zposition Xrotation Yrotation Zrotation
									JOINT f_pinky.01.R
									{
										OFFSET -0.6998 -0.2617 0.0360
										CHANNELS 3 Xrotation Yrotation Zrotation
										JOINT f_pinky.02.R
										{
											OFFSET -0.1850 -0.1284 -0.1643
											CHANNELS 3 Xrotation Yrotation Zrotation
											JOINT f_pinky.03.R
											{
												OFFSET -0.1381 -0.0982 -0.1495
												CHANNELS 3 Xrotation Yrotation Zrotation
												End Site
												{
													OFFSET -0.0723 -0.0612 -0.1166
												}
											}
										}
									}
								}
							}
						}
					}
				}
			}
		}
	}
	JOINT pelvis.L
	{
		OFFSET 0.0000 0.0000 0.0000
		CHANNELS 6 Xposition Yposition Zposition Xrotation Yrotation Zrotation
		JOINT thigh.L
		{
			OFFSET 1.0168 0.0105 -0.0000
			CHANNELS 3 Xrotation Yrotation Zrotation
			JOINT shin.L
			{
				OFFSET 0.0000 -5.3480 0.4100
				CHANNELS 3 Xrotation Yrotation Zrotation
				JOINT foot.L
				{
					OFFSET 0.0000 -4.5200 -0.4480
					CHANNELS 3 Xrotation Yrotation Zrotation
					JOINT toe.L
					{
						OFFSET -0.0000 -0.6850 1.0960
						CHANNELS 3 Xrotation Yrotation Zrotation
						End Site
						{
							OFFSET -0.0000 0.0000 0.6720
						}
					}
				}
				JOINT heel.L
				{
					OFFSET 0.0000 -4.5200 -0.4480
					CHANNELS 3 Xrotation Yrotation Zrotation
					JOINT heel.02.L
					{
						OFFSET -0.3800 -0.8520 0.1620
						CHANNELS 6 Xposition Yposition Zposition Xrotation Yrotation Zrotation
						End Site
						{
							OFFSET 0.8000 -0.0000 0.0000
						}
					}
				}
			}
		}
	}
	JOINT pelvis.R
	{
		OFFSET 0.0000 0.0000 0.0000
		CHANNELS 6 Xposition Yposition Zposition Xrotation Yrotation Zrotation
		JOINT thigh.R
		{
			OFFSET -0.9433 0.0105 0.0000
			CHANNELS 3 Xrotation Yrotation Zrotation
			JOINT shin.R
			{
				OFFSET 0.0000 -5.3480 0.4100
				CHANNELS 3 Xrotation Yrotation Zrotation
				JOINT foot.R
				{
					OFFSET 0.0000 -4.5200 -0.4480
					CHANNELS 3 Xrotation Yrotation Zrotation
					JOINT toe.R
					{
						OFFSET -0.0000 -0.6850 1.0960
						CHANNELS 3 Xrotation Yrotation Zrotation
						End Site
						{
							OFFSET -0.0000 0.0000 0.6720
						}
					}
				}
				JOINT heel.R
				{
					OFFSET 0.0000 -4.5200 -0.4480
					CHANNELS 3 Xrotation Yrotation Zrotation
					JOINT heel.02.R
					{
						OFFSET 0.3800 -0.8520 0.1620
						CHANNELS 6 Xposition Yposition Zposition Xrotation Yrotation Zrotation
						End Site
						{
							OFFSET -0.8000 0.0000 -0.0000
						}
					}
				}
			}
		}
	}
}
MOTION
Frames: 4
Frame Time: 0.041667
-0.0021 0.2732 -0.0205 1.4918 89.4511 0.2018 0.0000 0.0000 0.0000 0.0000 0.0000 0.0000 0.0000 0.0000 0.0000 0.0000 0.0000 0.0000 0.0009 0.1551 0.0093 11.8577 -0.0150 4.8256 0.0199 0.0790 0.0575 5.5676 9.6981 28.2165 0.1770 -0.0205 -0.0951 -8.3453 11.0532 -59.1499 -8.5656 -9.7984 -8.9870 0.0000 0.0000 0.0000 0.0218 -0.0383 0.0130 0.0000 0.0000 0.0000 0.0000 0.0000 0.0000 0.0000 0.0000 0.0000 0.0000 0.0000 0.0000 -0.0091 -0.0023 -0.0242 0.0000 0.0000 0.0000 0.0000 0.0000 0.0000 0.0000 0.0000 0.0000 0.0328 -0.0251 0.0123 0.0000 0.0000 0.0000 0.0000 0.0000 0.0000 0.0000 0.0000 0.0000 0.0000 0.0000 0.0000 0.0392 -0.0114 0.0084 0.0000 0.0000 0.0000 0.0000 0.0000 0.0000 0.0000 0.0000 0.0000 0.0000 0.0000 0.0000 0.0434 0.0024 0.0029 0.0000 0.0000 0.0000 0.0000 0.0000 0.0000 0.0000 0.0000 0.0000 0.0000 0.0000 0.0000 -0.0167 0.0790 0.0577 4.1616 3.6690 -28.7661 -0.1770 -0.0205 -0.0951 3.8769 -0.1435 10.4719 0.0938 6.3849 -5.1216 0.0000 0.0000 0.0000 -0.0218 -0.0383 0.0130 0.0000 0.0000 0.0000 0.0000 0.0000 0.0000 0.0000 0.0000 0.0000 0.0000 0.0000 0.0000 0.0091 -0.0024 -0.0242 0.0000 0.0000 0.0000 0.0000 0.0000 0.0000 0.0000 0.0000 0.0000 -0.0328 -0.0251 0.0123 0.0000 0.0000 0.0000 0.0000 0.0000 0.0000 0.0000 0.0000 0.0000 0.0000 0.0000 0.0000 -0.0392 -0.0115 0.0084 0.0000 0.0000 0.0000 0.0000 0.0000 0.0000 0.0000 0.0000 0.0000 0.0000 0.0000 0.0000 -0.0434 0.0024 0.0028 0.0000 0.0000 0.0000 0.0000 0.0000 0.0000 0.0000 0.0000 0.0000 0.0000 0.0000 0.0000 0.0000 0.0000 0.0000 -1.4544 -0.0990 0.2551 -5.1710 -0.2615 -2.8474 7.5026 -0.3041 3.0750 0.0000 0.0000 0.0000 0.0000 0.0000 0.0000 0.0000 0.0000 0.0000 -0.0380 -0.0852 0.0162 0.0000 0.0000 0.0000 0.0000 0.0000 0.0000 -1.4261 -0.0987 1.4894 -6.8448 0.3251 3.3957 36.7561 -0.1696 1.7148 0.0000 0.0000 0.0000 0.0000 0.0000 0.0000 0.0000 0.0000 0.0000 0.0380 -0.0852 0.0162 0.0000 0.0000 0.0000 
-0.0022 0.2721 -0.0208 -3.6180 93.4408 5.6316 0.0000 0.0000 0.0000 0.0000 0.0000 0.0000 0.0000 0.0000 0.0000 0.0000 0.0000 0.0000 0.0009 0.1551 0.0093 11.5320 -0.0148 5.1314 0.0199 0.0790 0.0575 5.2015 6.8087 28.7010 0.1770 -0.0205 -0.0951 -9.6758 11.2980 -59.3102 -8.4935 -9.9873 -8.2835 0.0000 0.0000 0.0000 0.0218 -0.0383 0.0130 0.0000 0.0000 0.0000 0.0000 0.0000 0.0000 0.0000 0.0000 0.0000 0.0000 0.0000 0.0000 -0.0091 -0.0023 -0.0242 0.0000 0.0000 0.0000 0.0000 0.0000 0.0000 0.0000 0.0000 0.0000 0.0328 -0.0251 0.0123 0.0000 0.0000 0.0000 0.0000 0.0000 0.0000 0.0000 0.0000 0.0000 0.0000 0.0000 0.0000 0.0392 -0.0114 0.0084 0.0000 0.0000 0.0000 0.0000 0.0000 0.0000 0.0000 0.0000 0.0000 0.0000 0.0000 0.0000 0.0434 0.0024 0.0029 0.0000 0.0000 0.0000 0.0000 0.0000 0.0000 0.0000 0.0000 0.0000 0.0000 0.0000 0.0000 -0.0167 0.0790 0.0577 4.3877 0.1893 -28.3520 -0.1770 -0.0205 -0.0951 4.2369 0.1530 10.9040 0.1000 6.3247 -5.0708 0.0000 0.0000 0.0000 -0.0218 -0.0383 0.0130 0.0000 0.0000 0.0000 0.0000 0.0000 0.0000 0.0000 0.0000 0.0000 0.0000 0.0000 0.0000 0.0091 -0.0024 -0.0242 0.0000 0.0000 0.0000 0.0000 0.0000 0.0000 0.0000 0.0000 0.0000 -0.0328 -0.0251 0.0123 0.0000 0.0000 0.0000 0.0000 0.0000 0.0000 0.0000 0.0000 0.0000 0.0000 0.0000 0.0000 -0.0392 -0.0115 0.0084 0.0000 0.0000 0.0000 0.0000 0.0000 0.0000 0.0000 0.0000 0.0000 0.0000 0.0000 0.0000 -0.0434 0.0024 0.0028 0.0000 0.0000 0.0000 0.0000 0.0000 0.0000 0.0000 0.0000 0.0000 0.0000 0.0000 0.0000 0.0000 0.0000 0.0000 -1.4648 -0.0890 0.1221 -1.8930 -0.2709 -3.1594 6.2690 -0.2694 2.7237 0.0000 0.0000 0.0000 0.0000 0.0000 0.0000 0.0000 0.0000 0.0000 -0.0380 -0.0852 0.0162 0.0000 0.0000 0.0000 0.0000 0.0000 0.0000 -1.4360 -0.0888 1.3563 -10.1170 0.3269 3.1864 33.6698 -0.1906 1.9264 0.0000 0.0000 0.0000 0.0000 0.0000 0.0000 0.0000 0.0000 0.0000 0.0380 -0.0852 0.0162 0.0000 0.0000 0.0000 
-0.0021 0.2717 -0.0209 -3.1047 96.2154 5.1859 0.0000 0.0000 0.0000 0.0000 0.0000 0.0000 0.0000 0.0000 0.0000 0.0000 0.0000 0.0000 0.0009 0.1551 0.0093 11.0721 -0.0142 5.1323 0.0199 0.0790 0.0575 4.8380 3.2840 29.0665 0.1770 -0.0205 -0.0951 -11.9975 11.9258 -60.1981 -9.0521 -10.5247 -9.3334 0.0000 0.0000 0.0000 0.0218 -0.0383 0.0130 0.0000 0.0000 0.0000 0.0000 0.0000 0.0000 0.0000 0.0000 0.0000 0.0000 0.0000 0.0000 -0.0091 -0.0023 -0.0242 0.0000 0.0000 0.0000 0.0000 0.0000 0.0000 0.0000 0.0000 0.0000 0.0328 -0.0251 0.0123 0.0000 0.0000 0.0000 0.0000 0.0000 0.0000 0.0000 0.0000 0.0000 0.0000 0.0000 0.0000 0.0392 -0.0114 0.0084 0.0000 0.0000 0.0000 0.0000 0.0000 0.0000 0.0000 0.0000 0.0000 0.0000 0.0000 0.0000 0.0434 0.0024 0.0029 0.0000 0.0000 0.0000 0.0000 0.0000 0.0000 0.0000 0.0000 0.0000 0.0000 0.0000 0.0000 -0.0167 0.0790 0.0577 4.7159 -3.2225 -27.9553 -0.1770 -0.0205 -0.0951 5.0295 0.5075 11.9312 0.0694 6.2958 -5.1378 0.0000 0.0000 0.0000 -0.0218 -0.0383 0.0130 0.0000 0.0000 0.0000 0.0000 0.0000 0.0000 0.0000 0.0000 0.0000 0.0000 0.0000 0.0000 0.0091 -0.0024 -0.0242 0.0000 0.0000 0.0000 0.0000 0.0000 0.0000 0.0000 0.0000 0.0000 -0.0328 -0.0251 0.0123 0.0000 0.0000 0.0000 0.0000 0.0000 0.0000 0.0000 0.0000 0.0000 0.0000 0.0000 0.0000 -0.0392 -0.0115 0.0084 0.0000 0.0000 0.0000 0.0000 0.0000 0.0000 0.0000 0.0000 0.0000 0.0000 0.0000 0.0000 -0.0434 0.0024 0.0028 0.0000 0.0000 0.0000 0.0000 0.0000 0.0000 0.0000 0.0000 0.0000 0.0000 0.0000 0.0000 0.0000 0.0000 0.0000 -1.4679 -0.0911 0.1441 0.8403 -0.2777 -3.4071 5.6369 -0.2518 2.5458 0.0000 0.0000 0.0000 0.0000 0.0000 0.0000 0.0000 0.0000 0.0000 -0.0380 -0.0852 0.0162 0.0000 0.0000 0.0000 0.0000 0.0000 0.0000 -1.4390 -0.0908 1.3783 -12.5314 0.3460 3.2713 29.3305 -0.1457 1.4723 0.0000 0.0000 0.0000 0.0000 0.0000 0.0000 0.0000 0.0000 0.0000 0.0380 -0.0852 0.0162 0.0000 0.0000 0.0000 
-0.0019 0.2708 -0.0207 -2.0829 98.8826 4.5776 0.0000 0.0000 0.0000 0.0000 0.0000 0.0000 0.0000 0.0000 0.0000 0.0000 0.0000 0.0000 0.0009 0.1551 0.0093 10.7410 -0.0139 5.2100 0.0199 0.0790 0.0575 4.4704 -0.0993 29.3747 0.1770 -0.0205 -0.0951 -14.7242 12.8575 -61.2438 -10.7623 -11.5106 -11.6148 0.0000 0.0000 0.0000 0.0218 -0.0383 0.0130 0.0000 0.0000 0.0000 0.0000 0.0000 0.0000 0.0000 0.0000 0.0000 0.0000 0.0000 0.0000 -0.0091 -0.0023 -0.0242 0.0000 0.0000 0.0000 0.0000 0.0000 0.0000 0.0000 0.0000 0.0000 0.0328 -0.0251 0.0123 0.0000 0.0000 0.0000 0.0000 0.0000 0.0000 0.0000 0.0000 0.0000 0.0000 0.0000 0.0000 0.0392 -0.0114 0.0084 0.0000 0.0000 0.0000 0.0000 0.0000 0.0000 0.0000 0.0000 0.0000 0.0000 0.0000 0.0000 0.0434 0.0024 0.0029 0.0000 0.0000 0.0000 0.0000 0.0000 0.0000 0.0000 0.0000 0.0000 0.0000 0.0000 0.0000 -0.0167 0.0790 0.0577 5.0473 -6.4146 -27.7265 -0.1770 -0.0205 -0.0951 5.7379 0.7348 12.5170 0.0344 6.2628 -5.1933 0.0000 0.0000 0.0000 -0.0218 -0.0383 0.0130 0.0000 0.0000 0.0000 0.0000 0.0000 0.0000 0.0000 0.0000 0.0000 0.0000 0.0000 0.0000 0.0091 -0.0024 -0.0242 0.0000 0.0000 0.0000 0.0000 0.0000 0.0000 0.0000 0.0000 0.0000 -0.0328 -0.0251 0.0123 0.0000 0.0000 0.0000 0.0000 0.0000 0.0000 0.0000 0.0000 0.0000 0.0000 0.0000 0.0000 -0.0392 -0.0115 0.0084 0.0000 0.0000 0.0000 0.0000 0.0000 0.0000 0.0000 0.0000 0.0000 0.0000 0.0000 0.0000 -0.0434 0.0024 0.0028 0.0000 0.0000 0.0000 0.0000 0.0000 0.0000 0.0000 0.0000 0.0000 0.0000 0.0000 0.0000 0.0000 0.0000 0.0000 -1.4829 -0.0930 0.1638 3.1495 -0.2754 -3.5097 5.4592 -0.2423 2.4491 0.0000 0.0000 0.0000 0.0000 0.0000 0.0000 0.0000 0.0000 0.0000 -0.0380 -0.0852 0.0162 0.0000 0.0000 0.0000 0.0000 0.0000 0.0000 -1.4538 -0.0926 1.3980 -14.2740 0.3623 3.3699 23.7980 -0.1235 1.2486 0.0000 0.0000 0.0000 0.0000 0.0000 0.0000 0.0000 0.0000 0.0000 0.0380 -0.0852 0.0162 0.0000 0.0000 0.0000 
